<svg xmlns="http://www.w3.org/2000/svg" xml:space="preserve" width="200" height="200" style="fill-rule:evenodd;clip-rule:evenodd;stroke-linecap:round;stroke-linejoin:round;stroke-miterlimit:1.5"><g transform="translate(300)"><path d="M-300 0h200v200h-200z" style="fill:none"/><clipPath id="a"><path d="M-300 0h200v200h-200z"/></clipPath><g clip-path="url(#a)"><path d="M200 50v100c0 27.596-21.284 50-47.5 50h-95C31.284 200 10 177.596 10 150V50C10 22.404 31.284 0 57.5 0h95C178.716 0 200 22.404 200 50" style="fill:#333;stroke:#000;stroke-width:.02px" transform="matrix(1.05263 0 0 1 -310.526 0)"/><path d="M63.869 93.92a3 3 0 0 1 3 3v1.486q-.029 6.804-3.24 11.881-3.213 5.078-8.88 7.874t-13.091 2.796q-6.534 0-11.888-2.293-5.352-2.294-8.517-7.106-2.439-3.708-2.982-9.027a2.969 2.969 0 0 1 2.954-3.283c3.196-.029 8.118-.029 11.128-.029a3 3 0 0 1 2.927 2.344c.143.829.395 1.576.728 2.246q.94 1.89 2.622 2.861 1.682.97 4.013.971 2.427 0 4.101-1.046 1.675-1.046 2.547-3.107.868-2.052.898-5.061V96.92a3.004 3.004 0 0 1 3-3zm-42.615 0a3.003 3.003 0 0 1-3-3v-1.486q.03-6.803 3.24-11.88 3.213-5.08 8.881-7.874 5.666-2.796 13.091-2.796 6.535 0 11.887 2.293t8.518 7.106q2.438 3.708 2.982 9.027a2.97 2.97 0 0 1-2.954 3.282c-3.196.03-8.118.03-11.128.03a3 3 0 0 1-2.927-2.344 8 8 0 0 0-.729-2.246q-.94-1.89-2.621-2.861-1.682-.97-4.013-.971-2.427 0-4.102 1.046-1.674 1.046-2.546 3.107-.867 2.052-.899 5.061v1.506a3 3 0 0 1-3 3z" style="fill:#fff" transform="translate(-341.68 -212.644)scale(3.32882)"/></g></g></svg>